<mxfile host="app.diagrams.net" modified="2020-12-09T08:27:52.959Z" agent="5.0 (X11; Linux x86_64) AppleWebKit/537.36 (KHTML, like Gecko) Chrome/87.0.4280.88 Safari/537.36" etag="mlPtpa3KRlvtoU5rBJrG" version="13.11.0" type="github">
  <diagram id="OkqVS_xGyMmYPCMDo9rC" name="Page-1">
    <mxGraphModel dx="418" dy="797" grid="1" gridSize="10" guides="1" tooltips="1" connect="1" arrows="1" fold="1" page="1" pageScale="1" pageWidth="827" pageHeight="1169" math="0" shadow="0">
      <root>
        <mxCell id="0" />
        <mxCell id="1" parent="0" />
        <mxCell id="8QWmst8LF8h4_wFS4G-b-6" style="edgeStyle=orthogonalEdgeStyle;rounded=0;orthogonalLoop=1;jettySize=auto;html=1;exitX=1;exitY=0.3333333333333333;exitDx=0;exitDy=0;exitPerimeter=0;entryX=0;entryY=0.5;entryDx=0;entryDy=0;" edge="1" parent="1" source="8QWmst8LF8h4_wFS4G-b-1" target="8QWmst8LF8h4_wFS4G-b-4">
          <mxGeometry relative="1" as="geometry" />
        </mxCell>
        <mxCell id="8QWmst8LF8h4_wFS4G-b-10" style="edgeStyle=orthogonalEdgeStyle;rounded=0;orthogonalLoop=1;jettySize=auto;html=1;exitX=1;exitY=0.3333333333333333;exitDx=0;exitDy=0;exitPerimeter=0;entryX=0;entryY=0.5;entryDx=0;entryDy=0;" edge="1" parent="1" source="8QWmst8LF8h4_wFS4G-b-1" target="8QWmst8LF8h4_wFS4G-b-9">
          <mxGeometry relative="1" as="geometry">
            <mxPoint x="130" y="400" as="targetPoint" />
          </mxGeometry>
        </mxCell>
        <mxCell id="8QWmst8LF8h4_wFS4G-b-16" style="edgeStyle=orthogonalEdgeStyle;rounded=0;orthogonalLoop=1;jettySize=auto;html=1;exitX=1;exitY=0.3333333333333333;exitDx=0;exitDy=0;exitPerimeter=0;entryX=0;entryY=0.5;entryDx=0;entryDy=0;" edge="1" parent="1" source="8QWmst8LF8h4_wFS4G-b-1" target="8QWmst8LF8h4_wFS4G-b-13">
          <mxGeometry relative="1" as="geometry" />
        </mxCell>
        <mxCell id="8QWmst8LF8h4_wFS4G-b-1" value="Usuario" style="shape=umlActor;verticalLabelPosition=bottom;verticalAlign=top;html=1;outlineConnect=0;" vertex="1" parent="1">
          <mxGeometry x="40" y="260" width="30" height="60" as="geometry" />
        </mxCell>
        <mxCell id="8QWmst8LF8h4_wFS4G-b-4" value="Nuevo usuario ingresa correo. nombre usuario, contraseña" style="rounded=1;whiteSpace=wrap;html=1;" vertex="1" parent="1">
          <mxGeometry x="160" y="190" width="120" height="60" as="geometry" />
        </mxCell>
        <mxCell id="8QWmst8LF8h4_wFS4G-b-5" value="Proveer plataforma para poder hacer registro" style="rounded=1;whiteSpace=wrap;html=1;" vertex="1" parent="1">
          <mxGeometry x="160" y="100" width="120" height="60" as="geometry" />
        </mxCell>
        <mxCell id="8QWmst8LF8h4_wFS4G-b-11" style="edgeStyle=orthogonalEdgeStyle;rounded=0;orthogonalLoop=1;jettySize=auto;html=1;" edge="1" parent="1" source="8QWmst8LF8h4_wFS4G-b-7" target="8QWmst8LF8h4_wFS4G-b-8">
          <mxGeometry relative="1" as="geometry" />
        </mxCell>
        <mxCell id="8QWmst8LF8h4_wFS4G-b-12" style="edgeStyle=orthogonalEdgeStyle;rounded=0;orthogonalLoop=1;jettySize=auto;html=1;exitX=0;exitY=0.3333333333333333;exitDx=0;exitDy=0;exitPerimeter=0;entryX=1;entryY=0.5;entryDx=0;entryDy=0;" edge="1" parent="1" source="8QWmst8LF8h4_wFS4G-b-7" target="8QWmst8LF8h4_wFS4G-b-5">
          <mxGeometry relative="1" as="geometry" />
        </mxCell>
        <mxCell id="8QWmst8LF8h4_wFS4G-b-7" value="Administrador" style="shape=umlActor;verticalLabelPosition=bottom;verticalAlign=top;html=1;outlineConnect=0;" vertex="1" parent="1">
          <mxGeometry x="360" y="220" width="30" height="60" as="geometry" />
        </mxCell>
        <mxCell id="8QWmst8LF8h4_wFS4G-b-8" value="Envio de corro activacion" style="rounded=1;whiteSpace=wrap;html=1;" vertex="1" parent="1">
          <mxGeometry x="160" y="270" width="120" height="60" as="geometry" />
        </mxCell>
        <mxCell id="8QWmst8LF8h4_wFS4G-b-9" value="Activación de correo&amp;nbsp;" style="rounded=1;whiteSpace=wrap;html=1;" vertex="1" parent="1">
          <mxGeometry x="160" y="350" width="120" height="60" as="geometry" />
        </mxCell>
        <mxCell id="8QWmst8LF8h4_wFS4G-b-13" value="manejo de opciones de CRUD de los blog (creacion, actualizacion, busqueda de otros blog)" style="rounded=1;whiteSpace=wrap;html=1;" vertex="1" parent="1">
          <mxGeometry x="160" y="430" width="120" height="90" as="geometry" />
        </mxCell>
      </root>
    </mxGraphModel>
  </diagram>
</mxfile>
